<?xml version="1.0" encoding="utf-8"?>
<!-- Generator: Adobe Illustrator 23.0.3, SVG Export Plug-In . SVG Version: 6.00 Build 0)  -->
<svg version="1.1" id="Layer_1" xmlns="http://www.w3.org/2000/svg" xmlns:xlink="http://www.w3.org/1999/xlink" x="0px" y="0px"
	 viewBox="0 0 1920 995" style="enable-background:new 0 0 1920 995;" xml:space="preserve">
<style type="text/css">
	.st0{fill:#CC90E1;}
</style>
<path class="st0" d="M1656.5,174l231-189l347,133l-393,293L1656.5,174z"/>
<path class="st0" d="M735,500l140,140L507,998l-295,1L735,500z"/>
<path class="st0" d="M801,475c54.7,0,99,44.3,99,99s-44.3,99-99,99s-99-44.3-99-99S746.3,475,801,475z"/>
<path class="st0" d="M296,711l134,136l-152,153H-16L296,711z"/>
<path class="st0" d="M353,692c53,0,96,43,96,96s-43,96-96,96c-53,0-96-43-96-96S300,692,353,692z"/>
<path class="st0" d="M238.5,518c14.1,0,25.5,11.4,25.5,25.5S252.6,569,238.5,569S213,557.6,213,543.5S224.4,518,238.5,518z"/>
</svg>
