<?xml version="1.0" encoding="utf-8"?>
<!-- Generator: Adobe Illustrator 23.0.3, SVG Export Plug-In . SVG Version: 6.00 Build 0)  -->
<svg version="1.1" id="Layer_1" xmlns="http://www.w3.org/2000/svg" xmlns:xlink="http://www.w3.org/1999/xlink" x="0px" y="0px"
	 viewBox="0 0 80 80" style="enable-background:new 0 0 80 80;" xml:space="preserve">
<style type="text/css">
	.st0{display:none;fill:#FCFDFE;}
	.st1{fill:#87B6F7;}
	.st2{fill:#1A59B9;}
	.st3{fill:#408BF4;}
</style>
<g>
	<path class="st0" d="M8.2,5.4c20.9,0,41.9,0,62.8,0c0,21.5,0,42.9,0,64.4c-20.9,0-41.9,0-62.8,0C8.2,48.3,8.2,26.8,8.2,5.4z
		 M22.4,23.4c0.3,0.3,0.4,0.6,0.6,0.6c5.5,2.9,11,5.7,16.5,8.5c0.6,0.3,1.6,0.2,2.2-0.2c5.1-2.5,10.1-5.1,15.2-7.7
		c0.6-0.3,1.1-0.7,1.8-1.1c-0.5-0.6-0.9-1.1-1.3-1.5c-3.8-3.9-7.5-7.8-11.3-11.7c-3.4-3.5-7.8-3.5-11.2,0
		c-3.7,3.8-7.5,7.7-11.2,11.5C23.2,22.3,22.8,22.9,22.4,23.4z M43.9,65.8c0.7-0.4,1-0.5,1.3-0.8c7.3-7.5,14.6-15,21.7-22.7
		c1.1-1.2,1.7-3.4,1.9-5.2c0.3-3-1.7-5.1-3.8-6.9c-0.6-0.5-1.8-0.7-2.4-0.4c-5.8,2.9-11.6,5.9-17.3,8.9c-0.6,0.3-1.3,1.3-1.3,2
		C43.8,49,43.9,57.1,43.9,65.8z M36.3,65.7c0.3-0.5,0.4-0.6,0.4-0.7c0-8.1,0.1-16.2,0-24.3c0-0.6-0.5-1.5-1-1.7
		c-5.9-3.1-11.9-6.2-17.9-9.2c-0.5-0.2-1.3-0.2-1.8,0.1c-5.2,3.8-5.6,9.2-1.2,13.8c6.6,6.9,13.2,13.7,19.8,20.5
		C35.1,64.6,35.6,65.1,36.3,65.7z"/>
	<path class="st1" d="M22.4,23.4c0.4-0.5,0.8-1,1.3-1.5c3.7-3.9,7.4-7.7,11.2-11.5c3.4-3.5,7.8-3.5,11.2,0
		c3.8,3.9,7.6,7.8,11.3,11.7c0.4,0.4,0.8,0.9,1.3,1.5c-0.7,0.4-1.2,0.8-1.8,1.1c-5,2.6-10.1,5.2-15.2,7.7c-0.6,0.3-1.7,0.5-2.2,0.2
		C34,29.7,28.5,26.9,23,24C22.8,23.9,22.7,23.7,22.4,23.4z"/>
	<path class="st2" d="M43.9,65.8c0-8.6,0-16.8,0.1-25c0-0.7,0.7-1.7,1.3-2c5.7-3.1,11.5-6,17.3-8.9c0.6-0.3,1.9-0.1,2.4,0.4
		c2.1,1.8,4.1,3.9,3.8,6.9c-0.2,1.8-0.7,3.9-1.9,5.2C59.7,50,52.4,57.5,45.1,65C44.9,65.2,44.5,65.4,43.9,65.8z"/>
	<path class="st3" d="M36.3,65.7c-0.7-0.6-1.2-1.1-1.7-1.6C28,57.3,21.4,50.5,14.8,43.6c-4.4-4.6-4-10,1.2-13.8
		c0.4-0.3,1.3-0.3,1.8-0.1c6,3,12,6.1,17.9,9.2c0.5,0.3,1,1.1,1,1.7c0.1,8.1,0,16.2,0,24.3C36.7,65.1,36.6,65.2,36.3,65.7z"/>
</g>
</svg>
